<?xml version="1.0" encoding="UTF-8"?>
<svg xmlns="http://www.w3.org/2000/svg" width="72" height="72" viewBox="0 0 72 72">
  <g transform="translate(35.974 35.405) rotate(-0.9967828077676861)"><path d="M 31.036 -0.000 L 30.440 6.106 L 28.673 11.977 L 25.805 17.387 L 21.946 22.130 L 17.243 26.022 L 11.877 28.914 L 6.055 30.695 L 0.000 31.296 L -6.055 30.695 L -11.877 28.914 L -17.243 26.022 L -21.946 22.130 L -25.805 17.387 L -28.673 11.977 L -30.440 6.106 L -31.036 0.000 L -30.440 -6.106 L -28.673 -11.977 L -25.805 -17.387 L -21.946 -22.130 L -17.243 -26.022 L -11.877 -28.914 L -6.055 -30.695 L -0.000 -31.296 L 6.055 -30.695 L 11.877 -28.914 L 17.243 -26.022 L 21.946 -22.130 L 25.805 -17.387 L 28.673 -11.977 L 30.440 -6.106 L 31.036 -0.000 Z" fill="#4d4747" stroke="none" stroke-width="0"/></g>
  <g transform="translate(34.268 36.140)"><path d="M 11.203 -9.642 Q 12.645 -9.045 13.314 -10.456 L 14.014 -11.931 L 16.054 -17.089 L 18.213 -21.427 L 19.683 -23.599 Q 20.599 -24.952 19.463 -26.127 L 19.463 -26.127 Q 18.327 -27.302 16.887 -28.077 L 16.394 -28.343 Q 14.461 -29.383 12.341 -29.952 L 9.648 -30.674 Q 4.835 -31.965 -0.006 -30.781 L -0.350 -30.696 Q -5.352 -29.472 -9.382 -26.267 L -9.382 -26.267 Q -13.412 -23.061 -15.923 -18.566 L -16.322 -17.853 Q -19.232 -12.644 -20.104 -6.741 L -20.224 -5.929 Q -21.054 -0.305 -20.295 5.330 L -20.109 6.711 Q -19.536 10.964 -17.873 14.920 L -17.873 14.920 Q -16.210 18.877 -13.566 22.257 L -13.076 22.883 Q -9.941 26.890 -5.360 29.100 L -4.063 29.725 Q 0.581 31.965 5.730 31.698 L 6.119 31.678 Q 10.879 31.431 15.021 29.072 L 19.163 26.712 L 20.108 25.826 Q 21.054 24.939 20.384 23.830 L 19.690 22.680 L 16.281 17.709 L 13.213 10.840 L 12.418 9.800 Q 11.623 8.761 10.380 9.173 L 9.796 9.367 Q 7.969 9.973 6.049 10.104 L 4.603 10.203 Q 1.237 10.434 -1.728 8.824 L -2.058 8.645 Q -5.352 6.856 -6.657 3.342 L -7.020 2.365 Q -8.262 -0.979 -6.695 -4.185 L -6.566 -4.449 Q -5.128 -7.390 -2.274 -8.993 L -1.306 -9.536 Q 0.581 -10.596 2.708 -10.996 L 2.708 -10.996 Q 4.835 -11.397 6.941 -10.902 L 9.760 -10.240 L 11.203 -9.642 Z" fill="#ffffff" stroke="none" stroke-width="0"/></g>
  <g transform="translate(38.957 38.086)"><path d="M 8.841 -2.630 L 8.672 -1.169 L 8.168 0.235 L 7.351 1.530 L 6.252 2.665 L 4.912 3.596 L 3.383 4.288 L 0.508 4.764 L -3.298 10.119 L -3.194 4.353 L -4.912 3.596 L -6.252 2.665 L -7.351 1.530 L -8.168 0.235 L -8.672 -1.169 L -8.841 -2.630 L -8.672 -4.091 L -8.168 -5.496 L -7.351 -6.791 L -6.252 -7.926 L -4.912 -8.857 L -3.383 -9.549 L -1.725 -9.975 L -0.000 -10.119 L 1.725 -9.975 L 3.383 -9.549 L 4.912 -8.857 L 6.252 -7.926 L 7.351 -6.791 L 8.168 -5.496 L 8.672 -4.091 L 8.841 -2.630 Z" fill="#ffffff" stroke="none" stroke-width="0"/></g>
  <g transform="translate(35.576 35.813) rotate(-0.9967828077676861)"><path d="M 30.927 -0.000 L 30.333 6.073 L 28.573 11.913 L 25.715 17.295 L 21.869 22.012 L 17.182 25.883 L 11.835 28.760 L 6.034 30.531 L 0.000 31.129 L -6.034 30.531 L -11.835 28.760 L -17.182 25.883 L -21.869 22.012 L -25.715 17.295 L -28.573 11.913 L -30.333 6.073 L -30.927 0.000 L -30.333 -6.073 L -28.573 -11.913 L -25.715 -17.295 L -21.869 -22.012 L -17.182 -25.883 L -11.835 -28.760 L -6.034 -30.531 L -0.000 -31.129 L 6.034 -30.531 L 11.835 -28.760 L 17.182 -25.883 L 21.869 -22.012 L 25.715 -17.295 L 28.573 -11.913 L 30.333 -6.073 L 30.927 -0.000 Z" fill="none" stroke="#ffffff" stroke-width="1" stroke-linecap="round" stroke-linejoin="round"/></g>
  <g transform="translate(35.548 35.749) rotate(-0.9967828077676861)"><path d="M 32.976 0.000 L 32.342 6.473 L 30.466 12.697 L 27.418 18.434 L 23.317 23.462 L 18.320 27.588 L 12.619 30.654 L 6.433 32.543 L 0.000 33.180 L -6.433 32.543 L -12.619 30.654 L -18.320 27.588 L -23.317 23.462 L -27.418 18.434 L -30.466 12.697 L -32.342 6.473 L -32.976 0.000 L -32.342 -6.473 L -30.466 -12.697 L -27.418 -18.434 L -23.317 -23.462 L -18.320 -27.588 L -12.619 -30.654 L -6.433 -32.543 L -0.000 -33.180 L 6.433 -32.543 L 12.619 -30.654 L 18.320 -27.588 L 23.317 -23.462 L 27.418 -18.434 L 30.466 -12.697 L 32.342 -6.473 L 32.976 0.000 Z" fill="none" stroke="#ffffff" stroke-width="1" stroke-linecap="round" stroke-linejoin="round"/></g>
  <g transform="translate(35.645 35.873) rotate(-0.9967828077676861)"><path d="M 31.864 -0.000 L 31.252 6.269 L 29.438 12.296 L 26.494 17.851 L 22.531 22.720 L 17.703 26.716 L 12.194 29.686 L 6.216 31.514 L 0.000 32.131 L -6.216 31.514 L -12.194 29.686 L -17.703 26.716 L -22.531 22.720 L -26.494 17.851 L -29.438 12.296 L -31.252 6.269 L -31.864 0.000 L -31.252 -6.269 L -29.438 -12.296 L -26.494 -17.851 L -22.531 -22.720 L -17.703 -26.716 L -12.194 -29.686 L -6.216 -31.514 L -0.000 -32.131 L 6.216 -31.514 L 12.194 -29.686 L 17.703 -26.716 L 22.531 -22.720 L 26.494 -17.851 L 29.438 -12.296 L 31.252 -6.269 L 31.864 -0.000 Z" fill="none" stroke="#000000" stroke-width="1" stroke-linecap="round" stroke-linejoin="round"/></g>
  <g transform="translate(61.129 35.425)"><path d="M -5.716 24.324 L -1.413 19.117 Q 2.891 13.911 4.265 7.298 L 4.654 5.426 Q 6.316 -2.571 3.078 -10.069 L 1.652 -13.371 Q -0.161 -17.567 -3.238 -20.945 L -6.316 -24.324 L -2.731 -19.188 Q 0.854 -14.052 2.212 -7.938 L 2.428 -6.969 Q 4.002 0.115 2.654 7.245 L 2.183 9.735 Q 1.131 15.300 -2.292 19.812 L -5.716 24.324 Z" fill="#ffffff" stroke="none" stroke-width="0"/></g>
  <g transform="translate(13.596 32.079)"><path d="M -3.622 19.240 Q -6.620 13.981 -7.268 7.963 L -7.268 7.963 Q -7.916 1.944 -6.331 -3.898 L -5.768 -5.973 Q -4.676 -10.000 -2.361 -13.472 L -2.361 -13.472 Q -0.046 -16.944 3.099 -19.688 L 8.658 -24.537 L 1.991 -19.630 L -4.768 -12.222 L -8.658 -0.706 L -8.287 9.722 L -5.139 19.630 L -2.870 22.083 Q -0.601 24.537 -2.257 21.634 L -3.622 19.240 Z" fill="#ffffff" stroke="none" stroke-width="0"/></g>
</svg>