<?xml version="1.0" encoding="UTF-8"?>
<svg xmlns="http://www.w3.org/2000/svg" width="448" height="105" viewBox="0 0 448 105">
  <g transform="translate(223.929 52.715)" opacity="0.790"><path d="M -10.906 -17.582 Q -10.756 -15.005 -8.442 -16.148 L -8.065 -16.334 Q -5.373 -17.663 -2.456 -18.375 L -1.838 -18.525 Q 1.589 -19.361 5.116 -19.288 L 5.116 -19.288 Q 8.644 -19.214 6.626 -22.108 L 6.277 -22.610 Q 3.910 -26.007 1.574 -29.424 L 1.021 -30.233 Q -1.288 -33.612 -3.516 -37.045 L -4.661 -38.809 Q -5.744 -40.478 -6.719 -42.213 L -6.719 -42.213 Q -7.693 -43.948 -6.328 -45.396 L -6.301 -45.425 Q -4.909 -46.902 -2.879 -46.932 L 4.931 -47.049 L 9.061 -46.939 Q 13.192 -46.828 17.257 -46.084 L 17.277 -46.080 Q 21.362 -45.332 24.890 -43.143 L 26.027 -42.438 Q 28.972 -40.610 30.951 -37.765 L 32.930 -34.920 L 37.801 -28.987 L 39.083 -27.724 Q 40.033 -26.788 40.776 -27.896 L 41.518 -29.003 L 48.758 -40.078 L 50.058 -42.330 Q 51.358 -44.582 53.744 -45.614 L 54.003 -45.727 Q 56.648 -46.871 59.530 -46.925 L 68.437 -47.092 L 75.306 -46.871 L 79.057 -46.921 Q 80.813 -46.945 82.205 -45.874 L 82.205 -45.874 Q 83.598 -44.804 82.797 -43.240 L 81.605 -40.912 Q 80.535 -38.823 82.478 -40.140 L 83.041 -40.521 Q 85.547 -42.219 88.276 -43.530 L 88.411 -43.594 Q 91.275 -44.969 94.337 -45.816 L 95.512 -46.142 Q 99.749 -47.314 104.144 -47.193 L 107.273 -47.108 Q 113.208 -46.945 118.499 -44.250 L 120.277 -43.344 Q 123.790 -41.555 126.668 -38.860 L 127.159 -38.400 Q 129.545 -36.165 131.756 -33.756 L 131.756 -33.756 Q 133.967 -31.348 135.652 -28.546 L 138.620 -23.613 L 138.620 -32.769 L 138.470 -41.782 Q 138.434 -43.918 140.012 -45.357 L 140.012 -45.357 Q 141.590 -46.797 143.725 -46.854 L 152.636 -47.092 L 159.962 -47.039 Q 162.754 -47.019 165.167 -45.616 L 165.167 -45.616 Q 167.581 -44.213 167.511 -41.422 L 167.405 -37.139 L 167.135 -29.632 L 167.135 -20.838 L 167.025 -14.427 L 167.025 -12.071 Q 167.025 -9.716 168.363 -11.655 L 170.201 -14.319 Q 171.620 -16.376 173.407 -18.122 L 173.407 -18.122 Q 175.193 -19.868 177.678 -19.606 L 177.994 -19.572 Q 180.795 -19.277 182.576 -17.095 L 187.244 -11.378 Q 190.213 -7.742 189.967 -12.430 L 189.692 -17.675 L 189.999 -26.609 L 189.692 -35.949 L 189.830 -40.974 Q 189.897 -43.421 191.479 -45.289 L 191.479 -45.289 Q 193.062 -47.157 195.510 -47.144 L 207.867 -47.076 L 213.503 -46.961 Q 215.831 -46.914 217.596 -45.394 L 217.596 -45.394 Q 219.360 -43.874 219.307 -41.546 L 218.997 -27.746 L 219.360 -13.594 L 219.398 6.975 L 219.284 21.102 L 219.398 32.869 L 219.578 41.202 Q 219.645 44.310 216.959 45.877 L 214.274 47.443 L 197.507 47.605 Q 194.581 47.633 192.100 46.083 L 192.100 46.083 Q 189.619 44.533 188.021 42.082 L 187.260 40.914 Q 184.901 37.296 182.617 33.631 L 180.048 29.510 Q 178.275 26.665 176.537 29.532 L 175.904 30.577 Q 173.782 34.080 171.704 37.609 L 171.614 37.763 Q 169.626 41.138 167.268 44.265 L 167.268 44.265 Q 164.909 47.391 160.995 47.523 L 156.332 47.681 Q 151.656 47.838 146.995 47.436 L 145.576 47.314 Q 142.334 47.034 140.200 44.577 L 140.200 44.577 Q 138.066 42.120 137.974 38.867 L 137.795 32.508 Q 137.729 30.149 136.044 31.802 L 136.044 31.802 Q 134.359 33.454 132.638 35.070 L 130.651 36.934 Q 126.943 40.414 122.469 42.831 L 121.186 43.523 Q 115.430 46.633 108.907 47.141 L 106.688 47.314 Q 100.605 47.789 94.891 45.649 L 89.177 43.509 L 86.138 45.464 Q 83.100 47.419 79.488 47.435 L 72.288 47.467 Q 67.194 47.490 62.324 45.997 L 60.695 45.498 Q 57.454 44.504 54.684 42.550 L 54.684 42.550 Q 51.914 40.595 49.878 37.884 L 44.229 30.360 L 42.441 27.587 Q 40.654 24.815 38.855 27.579 L 28.404 43.630 Q 25.939 47.416 21.422 47.435 L -1.579 47.537 Q -6.096 47.557 -3.962 43.575 L 0.421 35.395 Q 3.350 29.927 6.444 24.551 L 7.622 22.503 Q 11.895 15.079 5.925 21.222 L 0.079 27.238 Q -0.738 28.080 -1.896 27.884 L -2.907 27.714 Q -5.077 27.348 -5.409 25.173 L -6.554 17.688 Q -6.899 15.431 -9.003 14.542 L -9.003 14.542 Q -11.106 13.653 -11.069 15.936 L -10.712 38.226 L -10.515 42.774 Q -10.317 47.323 -14.870 47.306 L -33.669 47.235 Q -38.186 47.218 -38.202 42.701 L -38.310 11.190 Q -38.318 8.843 -39.648 10.777 L -43.594 16.512 Q -45.625 19.464 -49.207 19.548 L -49.207 19.548 Q -52.789 19.631 -55.070 16.868 L -60.993 9.695 Q -62.060 8.402 -62.059 10.079 L -62.057 13.817 Q -62.053 19.233 -62.305 24.642 L -62.438 27.493 Q -62.687 32.844 -62.687 38.200 L -62.687 40.605 Q -62.687 43.557 -65.101 45.255 L -65.101 45.255 Q -67.515 46.952 -70.467 46.991 L -83.423 47.163 Q -87.088 47.212 -89.623 44.565 L -89.623 44.565 Q -92.158 41.918 -92.233 38.254 L -92.416 29.266 Q -92.475 26.416 -94.118 28.745 L -97.545 33.600 L -102.298 38.768 L -105.705 40.973 Q -109.112 43.179 -112.951 44.493 L -115.370 45.321 Q -121.629 47.464 -128.235 47.117 L -130.087 47.020 Q -136.047 46.708 -141.593 44.502 L -143.844 43.607 Q -147.138 42.296 -149.753 39.902 L -151.007 38.753 Q -152.367 37.507 -153.901 38.531 L -157.401 40.866 L -162.973 44.001 L -168.545 45.730 Q -174.117 47.460 -179.945 47.175 L -182.831 47.034 Q -189.610 46.703 -195.658 43.622 L -196.286 43.302 Q -201.706 40.541 -206.190 36.434 L -206.190 36.434 Q -210.675 32.326 -213.433 26.905 L -214.798 24.224 Q -217.606 18.705 -218.625 12.597 L -218.625 12.597 Q -219.645 6.490 -219.327 0.306 L -219.007 -5.918 Q -218.614 -13.568 -215.983 -20.762 L -215.983 -20.762 Q -213.352 -27.956 -208.277 -33.693 L -206.936 -35.209 Q -200.855 -42.083 -192.139 -44.960 L -191.202 -45.270 Q -183.424 -47.838 -175.284 -46.923 L -172.244 -46.581 Q -167.144 -46.007 -162.457 -43.914 L -160.612 -43.090 Q -157.771 -41.821 -155.304 -39.925 L -155.304 -39.925 Q -152.838 -38.028 -150.343 -39.888 L -149.119 -40.801 Q -145.400 -43.574 -141.043 -45.166 L -139.750 -45.639 Q -134.100 -47.703 -128.089 -47.502 L -123.968 -47.365 Q -119.499 -47.216 -115.326 -45.609 L -115.326 -45.609 Q -111.153 -44.003 -107.447 -41.502 L -106.384 -40.784 Q -102.254 -37.997 -98.982 -34.241 L -98.545 -33.740 Q -95.709 -30.485 -93.994 -26.523 L -93.994 -26.523 Q -92.279 -22.560 -92.339 -26.877 L -92.436 -33.800 L -92.000 -41.225 Q -91.866 -43.513 -90.486 -45.343 L -90.486 -45.343 Q -89.105 -47.173 -86.817 -47.311 L -84.767 -47.434 Q -80.429 -47.696 -76.085 -47.587 L -67.973 -47.384 Q -63.734 -47.277 -61.446 -43.707 L -59.157 -40.137 L -55.190 -34.207 L -52.462 -30.122 Q -50.581 -27.305 -48.738 -30.148 L -46.895 -32.990 L -43.730 -38.269 L -40.672 -43.247 Q -39.339 -45.417 -36.940 -46.269 L -36.940 -46.269 Q -34.540 -47.122 -31.995 -47.059 L -24.738 -46.879 L -19.026 -46.883 Q -16.245 -46.885 -13.719 -45.722 L -13.719 -45.722 Q -11.194 -44.559 -11.194 -41.778 L -11.194 -35.042 L -11.260 -26.980 L -11.056 -20.158 L -10.906 -17.582 Z M -169.078 -7.107 L -172.198 -8.682 Q -175.190 -10.192 -178.540 -10.099 L -178.834 -10.090 Q -181.889 -10.005 -184.652 -8.696 L -185.018 -8.523 Q -187.414 -7.387 -188.472 -4.957 L -188.472 -4.957 Q -189.529 -2.526 -189.224 0.108 L -189.099 1.180 Q -188.824 3.551 -187.179 5.281 L -187.179 5.281 Q -185.533 7.011 -183.302 7.859 L -182.830 8.039 Q -180.126 9.067 -177.308 8.415 L -176.046 8.123 Q -173.662 7.572 -171.487 6.450 L -169.313 5.328 L -169.430 2.242 Q -169.548 -0.843 -169.317 -3.922 L -169.078 -7.107 Z M -136.445 -5.753 Q -134.724 -8.739 -131.408 -9.681 L -130.336 -9.986 Q -125.963 -11.228 -121.817 -9.362 L -121.316 -9.136 Q -117.671 -7.495 -116.889 -3.575 L -116.889 -3.575 Q -116.107 0.345 -118.363 3.644 L -118.532 3.891 Q -120.957 7.438 -125.239 7.790 L -125.870 7.842 Q -130.030 8.184 -133.629 6.069 L -134.302 5.673 Q -137.227 3.954 -137.696 0.594 L -137.696 0.594 Q -138.165 -2.766 -136.472 -5.706 L -136.445 -5.753 Z M 95.228 3.925 Q 92.544 1.068 93.067 -2.817 L 93.067 -2.817 Q 93.590 -6.701 96.991 -8.651 L 98.063 -9.265 Q 102.535 -11.830 107.428 -10.205 L 108.502 -9.849 Q 112.770 -8.432 114.382 -4.233 L 114.451 -4.054 Q 115.994 -0.035 113.626 3.562 L 113.626 3.562 Q 111.258 7.158 106.960 7.421 L 103.655 7.623 Q 98.971 7.909 95.757 4.489 L 95.228 3.925 Z" fill="#000000" stroke="none" stroke-width="0" fill-rule="evenodd"/></g>
  <g transform="translate(96.439 52.306)"><path d="M 35.010 0.000 L 34.337 8.414 L 32.345 16.505 L 29.109 23.961 L 24.756 30.497 L 19.450 35.861 L 13.398 39.846 L 6.830 42.301 L 0.000 43.129 L -6.830 42.301 L -13.398 39.846 L -19.450 35.861 L -24.756 30.497 L -29.109 23.961 L -32.345 16.505 L -34.337 8.414 L -35.010 0.000 L -34.337 -8.414 L -32.345 -16.505 L -29.109 -23.961 L -24.756 -30.497 L -19.450 -35.861 L -13.398 -39.846 L -6.830 -42.301 L -0.000 -43.129 L 6.830 -42.301 L 13.398 -39.846 L 19.450 -35.861 L 24.756 -30.497 L 29.109 -23.961 L 32.345 -16.505 L 34.337 -8.414 L 35.010 0.000 Z M 16.705 -1.008 L 16.383 1.774 L 15.428 4.448 L 13.878 6.913 L 11.791 9.073 L 9.249 10.846 L 6.349 12.164 L 3.201 12.975 L -0.072 13.249 L -3.345 12.975 L -6.492 12.164 L -9.392 10.846 L -11.935 9.073 L -14.021 6.913 L -15.571 4.448 L -16.526 1.774 L -16.849 -1.008 L -16.526 -3.789 L -15.571 -6.463 L -14.021 -8.928 L -11.935 -11.089 L -9.392 -12.862 L -6.492 -14.179 L -3.345 -14.990 L -0.072 -15.264 L 3.201 -14.990 L 6.349 -14.179 L 9.249 -12.862 L 11.791 -11.089 L 13.878 -8.928 L 15.428 -6.463 L 16.383 -3.789 L 16.705 -1.008 Z" fill="#fffffa" stroke="none" stroke-width="0" fill-rule="evenodd"/></g>
  <g transform="translate(38.390 52.643)"><path d="M 15.233 -13.111 Q 17.195 -12.299 18.104 -14.218 L 19.056 -16.224 L 21.830 -23.237 L 24.766 -29.137 L 26.765 -32.089 Q 28.011 -33.930 26.466 -35.528 L 26.466 -35.528 Q 24.920 -37.125 22.963 -38.179 L 22.293 -38.540 Q 19.665 -39.955 16.782 -40.729 L 13.119 -41.711 Q 6.574 -43.467 -0.008 -41.856 L -0.476 -41.741 Q -7.278 -40.076 -12.757 -35.718 L -12.757 -35.718 Q -18.237 -31.359 -21.652 -25.246 L -22.195 -24.276 Q -26.152 -17.193 -27.337 -9.166 L -27.500 -8.062 Q -28.629 -0.414 -27.597 7.247 L -27.344 9.125 Q -26.565 14.909 -24.304 20.288 L -24.304 20.288 Q -22.043 25.668 -18.447 30.265 L -17.780 31.117 Q -13.518 36.565 -7.288 39.570 L -5.525 40.421 Q 0.790 43.467 7.792 43.103 L 8.321 43.076 Q 14.794 42.740 20.426 39.532 L 26.058 36.323 L 27.343 35.118 Q 28.629 33.912 27.718 32.404 L 26.775 30.840 L 22.139 24.080 L 17.967 14.740 L 16.886 13.326 Q 15.804 11.913 14.115 12.473 L 13.320 12.737 Q 10.836 13.561 8.225 13.740 L 6.259 13.874 Q 1.682 14.188 -2.350 11.999 L -2.798 11.755 Q -7.278 9.323 -9.053 4.544 L -9.546 3.216 Q -11.235 -1.332 -9.104 -5.691 L -8.928 -6.050 Q -6.973 -10.049 -3.092 -12.229 L -1.776 -12.967 Q 0.790 -14.408 3.682 -14.953 L 3.682 -14.953 Q 6.574 -15.498 9.439 -14.825 L 13.272 -13.924 L 15.233 -13.111 Z" fill="#fffffa" stroke="none" stroke-width="0"/></g>
  <g transform="translate(173.449 52.401)"><path d="M -31.286 43.006 Q -34.974 42.982 -34.974 39.294 L -34.974 -39.248 Q -34.974 -43.103 -31.118 -43.103 L -19.955 -43.103 Q -16.099 -43.103 -13.963 -39.893 L -0.409 -19.525 Q 1.077 -17.292 2.476 -19.580 L 15.205 -40.408 Q 16.779 -42.982 19.797 -42.981 L 30.448 -42.977 Q 34.974 -42.976 34.970 -38.449 L 34.954 -21.395 L 34.944 -10.605 L 32.832 -6.792 Q 31.325 -4.070 31.511 -0.965 L 31.697 2.141 L 34.672 10.423 L 34.913 21.765 L 34.896 40.160 Q 34.893 43.346 31.708 43.346 L 20.986 43.346 Q 16.627 43.346 16.619 38.987 L 16.540 -5.298 Q 16.533 -8.818 14.714 -5.805 L 3.279 13.134 Q 1.286 16.435 -0.971 13.309 L -14.505 -5.436 Q -16.468 -8.154 -16.464 -4.801 L -16.409 38.912 Q -16.404 43.103 -20.595 43.076 L -31.286 43.006 Z" fill="#fffffa" stroke="none" stroke-width="0"/></g>
  <g transform="translate(228.486 56.726)"><path d="M 16.544 -4.922 L 16.226 -2.188 L 15.285 0.441 L 13.756 2.863 L 11.698 4.987 L 9.191 6.729 L 6.331 8.024 L 0.951 8.914 L -6.171 18.935 L -5.977 8.145 L -9.191 6.729 L -11.698 4.987 L -13.756 2.863 L -15.285 0.441 L -16.226 -2.188 L -16.544 -4.922 L -16.226 -7.656 L -15.285 -10.284 L -13.756 -12.707 L -11.698 -14.830 L -9.191 -16.573 L -6.331 -17.868 L -3.228 -18.665 L -0.000 -18.935 L 3.228 -18.665 L 6.331 -17.868 L 9.191 -16.573 L 11.698 -14.830 L 13.756 -12.707 L 15.285 -10.284 L 16.226 -7.656 L 16.544 -4.922 Z" fill="#ffffff" stroke="none" stroke-width="0"/></g>
  <g transform="translate(264.045 52.340)"><path d="M -34.998 43.164 Q -38.183 43.164 -36.554 40.426 L -25.283 21.479 L -21.365 13.836 L -18.450 11.090 Q -15.534 8.344 -14.081 4.612 L -13.847 4.011 Q -12.159 -0.321 -13.504 -4.772 L -13.616 -5.142 Q -15.074 -9.963 -18.880 -13.261 L -23.666 -17.408 L -27.347 -21.684 L -40.298 -40.275 Q -42.311 -43.164 -38.790 -43.164 L -30.357 -43.164 Q -18.403 -43.164 -11.534 -33.381 L -0.344 -17.443 L 13.785 -40.042 Q 15.652 -43.027 19.172 -42.993 L 35.356 -42.836 Q 37.367 -42.817 36.312 -41.104 L 11.352 -0.616 L 40.561 40.431 Q 42.311 42.890 39.293 42.907 L 30.271 42.958 Q 18.231 43.027 11.274 33.200 L -0.172 17.033 L -14.840 40.740 Q -16.340 43.164 -19.190 43.164 L -34.998 43.164 Z" fill="#fffffa" stroke="none" stroke-width="0"/></g>
  <g transform="translate(328.124 52.170)"><path d="M 35.010 -0.000 L 34.337 8.414 L 32.345 16.505 L 29.109 23.961 L 24.756 30.497 L 19.450 35.861 L 13.398 39.846 L 6.830 42.301 L 0.000 43.129 L -6.830 42.301 L -13.398 39.846 L -19.450 35.861 L -24.756 30.497 L -29.109 23.961 L -32.345 16.505 L -34.337 8.414 L -35.010 -0.000 L -34.337 -8.414 L -32.345 -16.505 L -29.109 -23.961 L -24.756 -30.497 L -19.450 -35.861 L -13.398 -39.846 L -6.830 -42.301 L -0.000 -43.129 L 6.830 -42.301 L 13.398 -39.846 L 19.450 -35.861 L 24.756 -30.497 L 29.109 -23.961 L 32.345 -16.505 L 34.337 -8.414 L 35.010 -0.000 Z M 16.705 -1.008 L 16.383 1.774 L 15.428 4.448 L 13.878 6.913 L 11.791 9.073 L 9.249 10.846 L 6.349 12.164 L 3.201 12.975 L -0.072 13.249 L -3.345 12.975 L -6.492 12.164 L -9.392 10.846 L -11.935 9.073 L -14.021 6.913 L -15.571 4.448 L -16.526 1.774 L -16.849 -1.008 L -16.526 -3.789 L -15.571 -6.463 L -14.021 -8.928 L -11.935 -11.089 L -9.392 -12.862 L -6.492 -14.179 L -3.345 -14.990 L -0.072 -15.264 L 3.201 -14.990 L 6.349 -14.179 L 9.249 -12.862 L 11.791 -11.089 L 13.878 -8.928 L 15.428 -6.463 L 16.383 -3.789 L 16.705 -1.008 Z" fill="#fffffa" stroke="none" stroke-width="0" fill-rule="evenodd"/></g>
  <g transform="translate(402.556 52.401) rotate(179.99740652970777)"><path d="M -31.286 42.885 Q -34.974 42.861 -34.974 39.173 L -34.974 -39.369 Q -34.974 -43.224 -31.118 -43.224 L -19.955 -43.224 Q -16.099 -43.224 -13.963 -40.014 L -0.409 -19.646 Q 1.077 -17.413 2.476 -19.701 L 15.205 -40.529 Q 16.779 -43.103 19.797 -43.102 L 30.448 -43.098 Q 34.974 -43.097 34.970 -38.570 L 34.896 40.039 Q 34.893 43.224 31.708 43.224 L 20.986 43.224 Q 16.627 43.224 16.619 38.866 L 16.540 -5.419 Q 16.533 -8.940 14.714 -5.926 L 3.279 13.013 Q 1.286 16.314 -0.971 13.188 L -14.505 -5.557 Q -16.468 -8.275 -16.464 -4.922 L -16.409 38.791 Q -16.404 42.982 -20.595 42.955 L -31.286 42.885 Z" fill="#fffffa" stroke="none" stroke-width="0"/></g>
  <g transform="translate(86.822 56.360)"><path d="" fill="none" stroke="#000000" stroke-width="4" stroke-linecap="round" stroke-linejoin="round"/></g>
  <g transform="translate(223.947 52.397)"><path d="M -208.919 35.952 Q -212.792 31.739 -215.271 26.581 L -215.306 26.507 Q -217.821 21.274 -219.045 15.600 L -219.392 13.988 Q -220.811 7.412 -220.879 0.685 L -220.883 0.286 Q -220.947 -6.043 -219.316 -12.159 L -217.685 -18.275 L -214.831 -24.390 Q -211.977 -30.506 -207.504 -35.560 L -205.409 -37.926 Q -201.512 -42.330 -196.076 -44.573 L -196.076 -44.573 Q -190.639 -46.815 -184.825 -47.695 L -182.142 -48.100 Q -174.466 -49.261 -167.195 -46.543 L -163.957 -45.333 Q -159.924 -43.825 -156.291 -41.515 L -152.658 -39.204 L -145.957 -43.648 Q -139.747 -47.766 -132.340 -48.582 L -132.340 -48.582 Q -124.933 -49.397 -117.719 -47.531 L -116.591 -47.239 Q -109.298 -45.353 -103.796 -40.206 L -102.072 -38.593 Q -98.295 -35.060 -95.781 -30.541 L -93.267 -26.021 L -93.155 -40.820 Q -93.131 -43.961 -90.684 -45.932 L -90.684 -45.932 Q -88.238 -47.902 -85.103 -48.093 L -77.094 -48.582 L -70.094 -48.446 Q -63.095 -48.310 -59.316 -42.417 L -50.456 -28.603 L -42.730 -42.730 Q -40.942 -46.000 -37.422 -47.223 L -37.422 -47.223 Q -33.902 -48.446 -30.176 -48.446 L -18.042 -48.446 Q -15.011 -48.446 -12.769 -46.407 L -12.769 -46.407 Q -10.526 -44.369 -10.404 -41.341 L -9.439 -17.323 L -5.905 -18.750 Q -2.372 -20.177 1.439 -20.177 L 5.647 -20.177 L -7.808 -40.971 L -8.420 -43.621 Q -9.031 -46.271 -6.409 -46.995 L -5.090 -47.359 Q -1.149 -48.446 2.939 -48.347 L 10.132 -48.174 L 15.704 -47.834 Q 21.276 -47.495 25.515 -43.861 L 26.793 -42.766 Q 31.741 -38.525 35.886 -33.496 L 40.031 -28.468 L 45.603 -37.709 L 49.409 -42.942 Q 53.214 -48.174 59.681 -47.978 L 81.301 -47.323 Q 84.609 -47.223 83.522 -44.097 L 82.434 -40.971 L 88.686 -44.640 Q 94.938 -48.310 102.186 -48.430 L 105.325 -48.482 Q 111.382 -48.582 117.057 -46.460 L 117.414 -46.327 Q 122.732 -44.339 126.945 -40.533 L 126.945 -40.533 Q 131.158 -36.728 134.037 -31.835 L 137.954 -25.176 L 137.919 -41.888 Q 137.907 -47.760 143.774 -47.998 L 146.167 -48.096 Q 153.621 -48.399 161.077 -48.136 L 161.077 -48.136 Q 168.533 -47.872 168.428 -40.413 L 168.379 -36.864 Q 168.261 -28.438 168.125 -20.011 L 167.989 -11.585 L 172.610 -17.769 Q 177.231 -23.953 182.310 -18.139 L 188.511 -11.042 L 188.737 -32.810 L 188.669 -40.692 Q 188.601 -48.575 196.483 -48.445 L 197.501 -48.428 Q 205.045 -48.303 212.588 -48.099 L 212.588 -48.099 Q 220.131 -47.896 220.176 -40.350 L 220.199 -36.411 Q 220.267 -24.927 220.388 -13.444 L 220.492 -3.454 Q 220.675 13.942 220.811 31.338 L 220.881 40.374 Q 220.947 48.734 212.588 48.938 L 204.230 49.142 L 195.005 48.411 Q 190.310 48.038 187.824 44.037 L 187.824 44.037 Q 185.339 40.036 182.690 36.141 L 178.408 29.843 L 174.150 36.656 Q 171.612 40.716 168.894 44.657 L 168.894 44.657 Q 166.176 48.598 161.389 48.507 L 144.971 48.195 Q 137.633 48.055 137.378 40.720 L 137.090 32.426 L 132.333 37.386 Q 127.576 42.347 121.523 45.601 L 121.256 45.744 Q 114.937 49.142 107.765 48.921 L 101.633 48.733 Q 97.269 48.598 93.192 47.036 L 89.114 45.473 L 86.328 46.560 Q 83.542 47.647 80.552 47.613 L 64.439 47.426 Q 60.030 47.375 56.021 45.541 L 56.021 45.541 Q 52.012 43.706 49.389 40.162 L 40.324 27.916 L 34.945 36.146 Q 32.414 40.020 30.104 44.029 L 30.104 44.029 Q 27.793 48.038 23.167 48.140 L 9.310 48.446 L 0.408 48.922 Q -8.494 49.397 -4.280 41.542 L 7.842 18.946 L 0.807 27.280 Q -0.992 29.411 -3.526 28.247 L -3.526 28.247 Q -6.060 27.084 -6.675 24.365 L -8.139 17.892 Q -8.331 17.043 -9.010 16.499 L -9.690 15.956 L -10.215 43.194 Q -10.261 45.592 -11.966 47.278 L -11.966 47.278 Q -13.671 48.965 -16.067 48.878 L -32.871 48.269 Q -39.454 48.030 -39.395 41.443 L -39.336 34.857 L -39.135 11.216 L -43.643 17.927 Q -48.151 24.639 -53.496 18.573 L -60.966 10.096 L -60.966 28.443 L -60.898 38.500 Q -60.830 48.557 -70.884 48.283 L -83.962 47.926 Q -93.029 47.679 -93.287 38.613 L -93.545 29.547 L -98.897 35.708 Q -104.248 41.869 -111.697 45.203 L -112.826 45.709 Q -120.372 49.086 -128.638 48.984 L -130.992 48.954 Q -136.905 48.881 -142.214 46.276 L -147.523 43.672 L -153.334 39.665 L -160.655 43.377 Q -167.558 46.877 -175.225 47.938 L -176.291 48.086 Q -182.893 49.000 -189.280 47.097 L -190.569 46.713 Q -195.668 45.194 -200.357 42.680 L -200.357 42.680 Q -205.045 40.166 -208.646 36.249 L -208.919 35.952 Z" fill="none" stroke="#ffffff" stroke-width="2" stroke-linecap="round" stroke-linejoin="round"/></g>
  <g transform="translate(96.966 51.492)"><path d="M 10.525 0.000 L 10.322 1.584 L 9.724 3.107 L 8.751 4.511 L 7.442 5.742 L 5.847 6.752 L 4.028 7.502 L 2.053 7.964 L 0.000 8.120 L -2.053 7.964 L -4.028 7.502 L -5.847 6.752 L -7.442 5.742 L -8.751 4.511 L -9.724 3.107 L -10.322 1.584 L -10.525 0.000 L -10.322 -1.584 L -9.724 -3.107 L -8.751 -4.511 L -7.442 -5.742 L -5.847 -6.752 L -4.028 -7.502 L -2.053 -7.964 L -0.000 -8.120 L 2.053 -7.964 L 4.028 -7.502 L 5.847 -6.752 L 7.442 -5.742 L 8.751 -4.511 L 9.724 -3.107 L 10.322 -1.584 L 10.525 0.000 Z" fill="none" stroke="#ffffff" stroke-width="2" stroke-linecap="round" stroke-linejoin="round"/></g>
  <g transform="translate(44.389 51.869)"><path d="M 9.405 -2.927 Q 9.490 -0.089 9.584 2.748 L 9.679 5.586 L 6.895 7.353 L 4.990 8.171 L 2.923 8.674 L 0.773 8.844 L -1.377 8.674 L -3.444 8.171 L -5.349 7.353 L -7.019 6.253 L -8.389 4.913 L -9.407 3.384 L -10.035 1.725 L -10.246 0.000 L -10.035 -1.725 L -9.407 -3.384 L -8.389 -4.913 L -7.019 -6.253 L -5.349 -7.353 L -3.444 -8.171 L -1.377 -8.674 L 0.773 -8.844 L 2.923 -8.674 L 4.990 -8.171 L 6.895 -7.353 L 9.300 -6.427 L 9.405 -2.927 Z" fill="none" stroke="#ffffff" stroke-width="2" stroke-linecap="round" stroke-linejoin="round"/></g>
  <g transform="translate(328.244 50.875)"><path d="M 10.872 0.000 L 10.663 1.661 L 10.045 3.258 L 9.040 4.729 L 7.688 6.019 L 6.040 7.078 L 4.161 7.865 L 2.121 8.349 L 0.000 8.513 L -2.121 8.349 L -4.161 7.865 L -6.040 7.078 L -7.688 6.019 L -9.040 4.729 L -10.045 3.258 L -10.663 1.661 L -10.872 0.000 L -10.663 -1.661 L -10.045 -3.258 L -9.040 -4.729 L -7.688 -6.019 L -6.040 -7.078 L -4.161 -7.865 L -2.121 -8.349 L -0.000 -8.513 L 2.121 -8.349 L 4.161 -7.865 L 6.040 -7.078 L 7.688 -6.019 L 9.040 -4.729 L 10.045 -3.258 L 10.663 -1.661 L 10.872 0.000 Z" fill="none" stroke="#ffffff" stroke-width="2" stroke-linecap="round" stroke-linejoin="round"/></g>
</svg>